<svg id="Layer_1" data-name="Layer 1" xmlns="http://www.w3.org/2000/svg" viewBox="0 0 400 300"><title>#59 ui design</title><rect x="78.38" y="29.58" width="140.21" height="164.56" fill="#e6e6e6"/><rect x="235.83" y="39.77" width="94.26" height="87.78" fill="#e6e6e6"/><rect x="279.67" y="142.27" width="67.19" height="33.73" fill="#e6e6e6"/><path d="M196.3,118.29s-7.2-1.87-9,3.23-18.51-1.54-20.52,13.6c-1.12,8.44-17.15,23.64-38,28.28s-22.25,30.75-22.25,30.75h56.67L200.81,139Z" opacity="0.08"/><ellipse cx="207.72" cy="254.32" rx="112.17" ry="25.25" fill="#e6e6e6" opacity="0.45"/><path d="M190.59,141s-49.07-5.2-47.22,20.76S172.73,243,172.73,243H233s45.74-70.15,23.49-92.71S229.15,147.1,190.59,141Z" fill="#e45405"/><polygon points="172.64 251.44 209.32 261.34 241.86 244.82 246.8 236.02 214 236.02 161.82 236.02 172.64 251.44" fill="#24285b"/><path d="M166.92,169.11c4.59-15.37-4.09-32.16-20.51-19.86-11.26,8.43-24.61,35.32-25.3,60.19-1.6,57.19,68.55-4.33,77.27-37.08l-8.63-5.1s-14.55,27.43-30.4,33.37C147.91,204.92,160.13,191.82,166.92,169.11Z" fill="#e45405"/><path d="M166.92,169.11c4.59-15.37-4.09-32.16-20.51-19.86-11.26,8.43-24.61,35.32-25.3,60.19-1.6,57.19,68.55-4.33,77.27-37.08l-8.63-5.1s-14.55,27.43-30.4,33.37C147.91,204.92,160.13,191.82,166.92,169.11Z" fill="#fff" opacity="0.46"/><path d="M190.59,141s-7.55,11.88-.15,16.13,9.77-.6,9.77-.6,5.51,6.5,10.44,1.46,4.23-15.08-.79-19.71S190.59,141,190.59,141Z" fill="#fff"/><path d="M192.31,141.36A58.51,58.51,0,0,1,193,148c.1,3,1.07,7.55,5.87,8.43,7.39,1.37,9.35-10.31,9.35-10.31s4.65-11-3.35-12.45C197.63,132.27,190.84,131.31,192.31,141.36Z" fill="#f4a28c"/><path d="M220.79,157.84s-4.58,9.62,7,29.35c6.63,11.3-13.8,30.15-13.8,30.15l-50.83,5.09L172.73,243H233s26.48-43.08,28.52-65.24S220.79,157.84,220.79,157.84Z" opacity="0.08"/><path d="M207.72,146.55s.42-3.55,3.51-3.4S213.11,149.93,207.72,146.55Z" fill="#f4a28c"/><path d="M194.09,144.57s1.08-3.4-1.79-4.55S187.78,145.42,194.09,144.57Z" fill="#f4a28c"/><circle cx="296.2" cy="159.13" r="9.17" fill="#c9c9c9"/><polygon points="175.03 232.89 170.78 194.15 235.83 194.15 229.34 234.87 230.27 240.09 174.34 240.53 175.03 232.89" fill="#ffd200"/><path d="M290.49,160.55s17.51,2.08,21,15.45H299.63Z" opacity="0.08"/><path d="M201.21,251.44s12.35,4.32,8.11,9.9-10.94-3.69-10.94-3.69Z" fill="#e45405"/><path d="M235.83,194.15l-12.89,17a66.54,66.54,0,0,1-29.34,22l-19.26,7.35,51.58-.41,4.35,0-.93-5.22Z" opacity="0.08"/><path d="M192.31,141.36s-12-1.72-6.62-10.52,6.53-2.21,9.06-9,4.81-8.14,8.51-5.23.12,9,5.72,7.31,9.44-3.32,10.5,1.32,0,6.87-3.61,8.46,2.06,7.84-7,10.39-13.79-7.36-13.79-7.36Z" fill="#24285b"/><path d="M201.59,249.29s-49.89-25.47-54.14-11.92,30.13,21.42,52.32,22.24Z" fill="#24285b"/><circle cx="203.95" cy="215.01" r="5.57" fill="#fff"/><path d="M213.72,251.28s39.79-39.43,48-27.81-22.2,29.57-43.09,37.09Z" fill="#24285b"/><path d="M215.28,254.26s-11.79,10.5-5,13.59,8.28-7.29,8.28-7.29Z" fill="#e45405"/><path d="M220.79,157.84a16.86,16.86,0,0,1,15-18.44c9-1,20.82-.37,31.33,6.21,20.4,12.79,43,23,37.39,46.16s-46,32.91-46,32.91l-5.4-8.8s35.68-12,29.19-30.91C276.42,168,224.63,196.37,220.79,157.84Z" fill="#e45405"/><path d="M220.79,157.84a16.86,16.86,0,0,1,15-18.44c9-1,20.82-.37,31.33,6.21,20.4,12.79,43,23,37.39,46.16s-46,32.91-46,32.91l-5.4-8.8s35.68-12,29.19-30.91C276.42,168,224.63,196.37,220.79,157.84Z" fill="#fff" opacity="0.46"/><path d="M254,217.34s-11.26,7.61-7.17,9.71,11-3.48,11-3.48Z" fill="#f4a28c"/><path d="M191.26,168.15s4-9.88,9.55-9.08-3.09,12.9-3.09,12.9Z" fill="#f4a28c"/><rect x="94.09" y="49.21" width="40.69" height="55.78" fill="#c9c9c9"/><rect x="246.39" y="50.51" width="31.47" height="29.11" fill="#c9c9c9"/><rect x="246.39" y="87.75" width="31.47" height="29.11" fill="#c9c9c9" opacity="0.44"/><rect x="288.17" y="87.75" width="31.47" height="29.11" fill="#c9c9c9" opacity="0.44"/><polygon points="248.74 74.14 254.89 64.64 262.13 73.11 269.04 60.95 275.51 74.32 275.51 77.68 248.74 77.68 248.74 74.14" fill="#fff" opacity="0.63"/><circle cx="261.88" cy="59.8" r="3.14" fill="#fff"/><rect x="288.42" y="50.51" width="31.47" height="29.11" fill="#c9c9c9"/><polygon points="290.77 74.14 296.92 64.64 304.15 73.11 311.07 60.95 317.54 74.32 317.54 77.68 290.77 77.68 290.77 74.14" fill="#fff" opacity="0.63"/><circle cx="303.9" cy="59.8" r="3.14" fill="#fff"/><rect x="54.28" y="124.85" width="60.69" height="34.83" fill="#ffd200"/><path d="M76.47,150.84a1.31,1.31,0,0,1-.86-.3l-9-7.12a1.38,1.38,0,0,1-.53-1.08,1.41,1.41,0,0,1,.52-1.09l9-7.25a1.39,1.39,0,0,1,1.74,2.17l-7.65,6.15,7.64,6a1.39,1.39,0,0,1-.86,2.48Z" fill="#24285b"/><path d="M92.77,150.84a1.37,1.37,0,0,1-1.09-.53,1.39,1.39,0,0,1,.23-1.95l7.64-6-7.65-6.15A1.39,1.39,0,0,1,93.64,134l9,7.25a1.41,1.41,0,0,1,.52,1.09,1.38,1.38,0,0,1-.53,1.08l-9,7.12A1.33,1.33,0,0,1,92.77,150.84Z" fill="#24285b"/><path d="M80.84,150.84a1.51,1.51,0,0,1-.58-.12,1.4,1.4,0,0,1-.68-1.85l6.56-14.36a1.39,1.39,0,1,1,2.53,1.15L82.11,150A1.4,1.4,0,0,1,80.84,150.84Z" fill="#24285b"/><circle cx="114.45" cy="62.29" r="5.63" fill="#fff"/><rect x="103.17" y="75.01" width="23.27" height="4.61" fill="#fff" opacity="0.56"/><rect x="103.17" y="85.44" width="23.27" height="4.61" fill="#fff" opacity="0.19"/><rect x="148.48" y="49.21" width="58.15" height="34.45" fill="#fff" opacity="0.46"/><rect x="148.48" y="93.5" width="58.15" height="11.49" fill="#fff"/><rect x="189.75" y="93.5" width="16.88" height="11.49" fill="#c9c9c9"/><rect x="312.33" y="153.3" width="22.5" height="4.08" fill="#c9c9c9"/><rect x="312.33" y="160.88" width="22.5" height="4.08" fill="#c9c9c9" opacity="0.45"/></svg>